<svg id="Layer_1" data-name="Layer 1" xmlns="http://www.w3.org/2000/svg" viewBox="0 0 230.31 205.9"><defs><style>.cls-1{fill:#0071f4;}</style></defs><path class="cls-1" d="M187.27,198.48c-34.34-28.17-34.22-81.38-34.22-81.38s27.54,6.45,48.87-2,17.12-35,19.85-44.65c1.77-6.28,5.73-19.13,8.3-27.4a5.3,5.3,0,0,0-5.64-6.86c-13.66,1.44-34.17,4.23-34.17,4.23-5.7-4-27.78-11.66-27.78-11.66-4.13-9.52-12.93-20.47-18.73-27.12A4.82,4.82,0,0,0,135.66,3c-3,7.3-9.26,19.7-22,36.2-21.33,27.53-1,56.3-1,56.3-23,36.63-24.3,68.32-23,84.2.46,5.54-4.32,10.15-9.26,9.08s-33.08-9-11.9-60.5c16.77-40.8-15-84.87-55-80.9-18.94,1.87-18,28.3,3.13,25.9C45.43,70,70.37,91.62,52.09,130c-17.36,36.5,2.2,75.88,35,75.88h97.5a4.19,4.19,0,0,0,2.68-7.42Zm-30-103.2s-41.2-9.67-22.1-49.86c0,0,38.52,4,22.12,49.86Zm29.5,7.94S188,80.4,213.32,80.65c0,0,3,27.53-26.53,22.57Z"/></svg>